<svg xmlns="http://www.w3.org/2000/svg" xmlns:xlink="http://www.w3.org/1999/xlink" version="1.1" x="0px" y="0px" viewBox="0 0 100 125" enable-background="new 0 0 100 100" xml:space="preserve"><circle cx="62.5" cy="45" r="2.5"/><circle cx="62.5" cy="17.5" r="2.5"/><path d="M75.5,55c1.2-1.3,2-3.1,2-5V40c0-4.1-3.4-7.5-7.5-7.5V30c4.1,0,7.5-3.4,7.5-7.5v-10C77.5,8.4,74.1,5,70,5H12.5  C8.4,5,5,8.4,5,12.5v10c0,4.1,3.4,7.5,7.5,7.5v2.5C8.4,32.5,5,35.9,5,40v10c0,4.1,3.4,7.5,7.5,7.5V60C8.4,60,5,63.4,5,67.5v10  c0,4.1,3.4,7.5,7.5,7.5h45.2c3.5,6,9.9,10,17.3,10c11,0,20-9,20-20C95,64.2,86.3,55.3,75.5,55z M10,22.5v-10c0-1.4,1.1-2.5,2.5-2.5  H70c1.4,0,2.5,1.1,2.5,2.5v10c0,1.4-1.1,2.5-2.5,2.5H12.5C11.1,25,10,23.9,10,22.5z M65,30v2.5H17.5V30H65z M10,50V40  c0-1.4,1.1-2.5,2.5-2.5H70c1.4,0,2.5,1.1,2.5,2.5v10c0,1.4-1.1,2.5-2.5,2.5H12.5C11.1,52.5,10,51.4,10,50z M65,57.5v0.2  c-1.1,0.7-2.2,1.4-3.2,2.3H17.5v-2.5H65z M55,75c0,1.7,0.2,3.4,0.7,5H12.5c-1.4,0-2.5-1.1-2.5-2.5v-10c0-1.4,1.1-2.5,2.5-2.5h45.2  C56,67.9,55,71.4,55,75z M75,90c-8.3,0-15-6.7-15-15s6.7-15,15-15s15,6.7,15,15S83.3,90,75,90z"/><polygon points="73.3,76.5 68,71.2 64.5,74.7 73.3,83.5 85.7,71.2 82.2,67.6 "/></svg>