<svg xmlns="http://www.w3.org/2000/svg" xmlns:xlink="http://www.w3.org/1999/xlink" version="1.1" x="0px" y="0px" viewBox="0 0 100 100" enable-background="new 0 0 100 100" xml:space="preserve"><path fill="#bbb" d="M95,88.503L66.881,60.401c3.711-4.851,6.179-10.749,6.874-17.267C75.774,24.203,62.064,7.219,43.132,5.201  C24.2,3.182,7.216,16.893,5.197,35.824C3.179,54.758,16.889,71.74,35.821,73.76c9.127,0.973,17.796-1.719,24.559-6.879  l28.131,28.115L95,88.503z M36.794,64.633c-13.891-1.482-23.951-13.943-22.47-27.834c1.481-13.893,13.942-23.953,27.833-22.471  s23.951,13.941,22.47,27.834C63.147,56.053,50.686,66.113,36.794,64.633z"></path></svg>