<svg xmlns="http://www.w3.org/2000/svg" xmlns:xlink="http://www.w3.org/1999/xlink" version="1.0" x="0px" y="0px" viewBox="0 0 32 40" enable-background="new 0 0 32 32" xml:space="preserve"><path d="M20,26v4H0v-4c0-5.043,1.59-4.289,7.562-6.867C5.465,17.625,4,14.445,4,12c0-3.312,2.684-6,6-6c3.312,0,6,2.688,6,6  c0,2.445-1.469,5.625-3.566,7.133C18.406,21.711,20,20.957,20,26z M24.434,15.133C26.531,13.625,28,10.445,28,8c0-3.312-2.688-6-6-6  c-2.922,0-5.352,2.09-5.887,4.852C17.289,8.242,18,10.039,18,12c0,0.453-0.047,0.918-0.117,1.383c0.492,0.688,1.055,1.297,1.68,1.75  c-0.926,0.398-1.738,0.715-2.465,0.988c-0.332,0.785-0.742,1.543-1.215,2.234c0.16,0.059,0.316,0.117,0.465,0.172  C20.164,19.949,22,20.859,22,26h10v-4C32,16.957,30.406,17.711,24.434,15.133z"/></svg>